<?xml version="1.0" standalone="no"?>
<!DOCTYPE svg PUBLIC "-//W3C//DTD SVG 20010904//EN"
 "http://www.w3.org/TR/2001/REC-SVG-20010904/DTD/svg10.dtd">
<svg version="1.0" xmlns="http://www.w3.org/2000/svg"
 width="20mm" height="20mm" viewBox="0 0 4338.000000 4338.000000"
 preserveAspectRatio="xMidYMid meet">
<metadata>
Created by potrace 1.16, written by Peter Selinger 2001-2019
</metadata>
<g transform="translate(0.000000,4338.000000) scale(0.100000,-0.100000)"
fill="#000000" stroke="none">
<path d="M17787 36871 c-2253 -1251 -4094 -2277 -4091 -2280 2 -2 1141 -413
2532 -912 l2527 -907 3 -1819 2 -1819 -8172 1168 c-4495 642 -8180 1167 -8190
1165 -9 -1 1296 -994 2905 -2209 l2922 -2208 5 973 5 973 5260 -2533 5260
-2533 8 -62 c4 -35 327 -4219 717 -9298 l710 -9236 781 -1497 782 -1498 17 38
c9 21 332 756 717 1633 l701 1595 782 9130 c430 5021 782 9130 783 9131 8 7
10377 4864 10384 4864 5 0 96 -377 203 -837 106 -461 194 -839 195 -841 2 -2
1230 1019 2730 2268 1499 1250 2724 2275 2721 2277 -2 3 -3670 -536 -8151
-1197 -4480 -661 -8148 -1200 -8151 -1197 -7 6 60 3494 66 3500 3 2 1108 440
2455 972 1348 532 2456 971 2463 974 8 5 -1405 824 -3745 2171 -2067 1190
-3821 2201 -3899 2245 l-140 82 -4097 -2276z"/>
<path d="M32095 22829 c-2354 -1106 -4284 -2015 -4290 -2020 -9 -9 -1637
-11414 -1632 -11433 2 -5 2299 3471 5105 7724 2806 4253 5101 7734 5099 7736
-1 2 -1929 -902 -4282 -2007z"/>
<path d="M7326 24698 c29 -51 10389 -15456 10392 -15453 8 8 -1811 11420
-1822 11432 -9 9 -8408 3961 -8544 4020 -26 11 -32 11 -26 1z"/>
</g>
</svg>
