<?xml version="1.0" encoding="UTF-8"?>
<svg id="Layer_1" xmlns="http://www.w3.org/2000/svg" version="1.1" viewBox="0 0 2155 2155">
  <!-- Generator: Adobe Illustrator 30.4.0, SVG Export Plug-In . SVG Version: 2.1.4 Build 226)  -->
  <defs>
    <style>
      .st0 {
        fill: #fff;
      }
    </style>
  </defs>
  <g>
    <path class="st0" d="M261.89,1700.42v219.44c0,4.38,1.16,7.71,3.48,9.97,2.32,2.27,6.46,4.1,12.42,5.52v6.78h-105.84v-6.78c5.96-1.41,10.1-3.25,12.42-5.52,2.32-2.26,3.48-5.58,3.48-9.97v-219.44h-105.34c-4.97,0-8.78.97-11.43,2.91-2.65,1.94-4.81,5.5-6.46,10.67h-7.95v-74.85h7.95c1.82,5.15,4.01,8.7,6.58,10.65,2.57,1.95,6.34,2.92,11.31,2.92h284.47c5.13,0,9.02-.97,11.68-2.92,2.65-1.94,4.8-5.5,6.46-10.65h7.95v74.85h-7.95c-1.66-5.17-3.81-8.73-6.46-10.67-2.65-1.94-6.55-2.91-11.68-2.91h-105.09Z"/>
    <path class="st0" d="M544.52,1919.86v-245.09c0-4.24-1.16-7.49-3.48-9.76-2.32-2.26-6.46-4.1-12.42-5.52v-6.78h105.84v6.78c-5.96,1.28-10.1,3.08-12.42,5.41-2.32,2.33-3.48,5.62-3.48,9.86v245.09c0,4.38,1.2,7.74,3.6,10.07,2.4,2.33,6.5,4.13,12.3,5.41v6.78h-105.84v-6.78c5.96-1.41,10.1-3.25,12.42-5.52,2.32-2.26,3.48-5.58,3.48-9.97Z"/>
    <path class="st0" d="M975.23,1700.42v219.44c0,4.38,1.16,7.71,3.48,9.97,2.32,2.27,6.46,4.1,12.42,5.52v6.78h-105.84v-6.78c5.96-1.41,10.1-3.25,12.42-5.52,2.32-2.26,3.48-5.58,3.48-9.97v-219.44h-105.34c-4.97,0-8.78.97-11.43,2.91-2.65,1.94-4.81,5.5-6.46,10.67h-7.95v-74.85h7.95c1.82,5.15,4.01,8.7,6.58,10.65,2.57,1.95,6.34,2.92,11.31,2.92h284.47c5.13,0,9.02-.97,11.68-2.92,2.65-1.94,4.8-5.5,6.46-10.65h7.95v74.85h-7.95c-1.66-5.17-3.81-8.73-6.46-10.67-2.65-1.94-6.55-2.91-11.68-2.91h-105.09Z"/>
    <path class="st0" d="M1452.38,1868.34h-154.14l-22.83,40.7c-3.15,5.66-4.72,10.11-4.72,13.36,0,6.23,5.53,10.54,16.61,12.94v6.78h-112.17v-6.78c6.62-1.13,11.68-3.11,15.16-5.94,3.48-2.83,7.45-8.34,11.92-16.54l124.72-222.41c3.98-7.06,5.96-12.72,5.96-16.96,0-6.5-4.81-11.16-14.41-14v-6.78h120.25v6.78c-9.77,2.41-14.66,6.57-14.66,12.51,0,4.1,1.57,8.77,4.72,14l129.19,223.04c5.47,9.48,10.27,15.94,14.41,19.4,4.14,3.46,9.69,5.76,16.65,6.89v6.78h-124.85v-6.78c10.97-1.55,16.45-5.94,16.45-13.15,0-2.96-1.66-7.35-4.97-13.15l-23.3-40.7ZM1431.08,1828.7l-55-103.1-55.88,103.1h110.88Z"/>
    <path class="st0" d="M1803.36,1743.88v175.98c0,4.38,1.16,7.71,3.48,9.97,2.32,2.27,6.46,4.1,12.42,5.52v6.78h-99.63v-6.78c5.96-1.41,10.1-3.25,12.42-5.52,2.32-2.26,3.48-5.58,3.48-9.97v-245.09c0-4.24-1.16-7.49-3.48-9.76-2.32-2.26-6.46-4.1-12.42-5.52v-6.78h115.28v6.78c-7.12,1.56-10.68,4.81-10.68,9.76,0,3.39,2.32,7.14,6.96,11.24l187.08,166.01v-171.74c0-4.24-1.16-7.49-3.48-9.76-2.32-2.26-6.46-4.1-12.42-5.52v-6.78h99.63v6.78c-5.96,1.42-10.1,3.26-12.42,5.52-2.32,2.27-3.48,5.52-3.48,9.76v245.09c0,4.38,1.16,7.71,3.48,9.97,2.32,2.27,6.46,4.1,12.42,5.52v6.78h-106.83v-6.78c6.96-1.28,10.44-4.31,10.44-9.12,0-2.83-4.06-7.77-12.18-14.84l-190.06-167.5Z"/>
  </g>
  <g>
    <polygon class="st0" points="529.64 717.43 844.1 865.13 910.8 1284.4 529.64 717.43"/>
    <polygon class="st0" points="1220.39 1279.63 1594.49 712.67 1280.04 860.36 1220.39 1279.63"/>
    <polygon class="st0" points="948.91 555.44 948.91 422.04 763.1 355.33 1063.26 188.58 1348.92 353.05 1168.08 424.52 1165.59 553.16 1763.63 464.92 1563.53 631.67 1549.23 569.73 1168.28 748.3 1110.9 1417.8 1058.5 1536.91 1001.32 1427.33 948.91 746.02 562.99 560.2 562.99 631.67 348.59 469.68 948.91 555.44"/>
  </g>
</svg>