<?xml version="1.0" encoding="UTF-8"?>
<svg id="Layer_1" xmlns="http://www.w3.org/2000/svg" version="1.1" viewBox="0 0 100 100">
  <!-- Generator: Adobe Illustrator 30.4.0, SVG Export Plug-In . SVG Version: 2.1.4 Build 226)  -->
  <defs>
    <style>
      .st0 {
        fill: none;
        stroke: #c29d4b;
        stroke-linecap: round;
        stroke-linejoin: round;
        stroke-width: .43px;
      }
    </style>
  </defs>
  <g>
    <path class="st0" d="M21.09,68.27l-3.62,7.51h6.52v-8.78h-.89c-.86,0-1.64.49-2.01,1.26Z"/>
    <line class="st0" x1="23.99" y1="75.78" x2="30.97" y2="83.3"/>
    <path class="st0" d="M40.48,68.27l3.62,7.51h-6.52v-8.78h.89c.86,0,1.64.49,2.01,1.26Z"/>
    <line class="st0" x1="37.49" y1="75.78" x2="30.97" y2="83.3"/>
    <path class="st0" d="M19.44,70.97c-1.88,1.49-8.86,3.18-10.95,4.27-2.08,1.09-2.58,3.57-3.07,7.33-.5,3.77-.69,7.38-.69,7.38h52.11s-.2-3.62-.69-7.38c-.5-3.77-.99-6.24-3.07-7.33-2.08-1.09-9.07-2.78-10.95-4.27"/>
    <path class="st0" d="M41.68,46.86v4.16s1.69-.41,1.62,1.93c0,0,.07,2.56-2.81,3.36,0,0-.2,3.27-.5,4.36-.3,1.09-4.26,6.34-9.21,6.34h0c-4.95,0-8.92-5.25-9.21-6.34-.3-1.09-.5-4.36-.5-4.36-2.88-.79-2.81-3.36-2.81-3.36-.07-2.34,1.62-1.93,1.62-1.93v-4.09"/>
    <line class="st0" x1="14.1" y1="82.57" x2="14.1" y2="89.95"/>
    <line class="st0" x1="47.47" y1="82.57" x2="47.47" y2="89.95"/>
    <line class="st0" x1="38.78" y1="84.33" x2="42.06" y2="84.33"/>
    <path class="st0" d="M42.06,46.13v-.4c0-6.22-5.05-11.27-11.27-11.27h0c-6.22,0-11.27,5.05-11.27,11.27v.4h22.54Z"/>
    <path class="st0" d="M19.51,46.13l1.15,2.63c.64,1.45,2.07,2.39,3.65,2.39h12.85c1.62,0,3.09-.98,3.7-2.49l1.19-2.92"/>
  </g>
  <g>
    <path class="st0" d="M60.65,44.94l-3.62,7.51h6.52v-8.78h-.89c-.86,0-1.64.49-2.01,1.26Z"/>
    <line class="st0" x1="63.55" y1="52.45" x2="70.52" y2="59.97"/>
    <path class="st0" d="M80.03,44.94l3.62,7.51h-6.52v-8.78h.89c.86,0,1.64.49,2.01,1.26Z"/>
    <line class="st0" x1="77.05" y1="52.45" x2="70.52" y2="59.97"/>
    <path class="st0" d="M59,47.63c-1.88,1.49-8.86,3.18-10.95,4.27-2.08,1.09-2.58,3.57-3.07,7.33-.5,3.77-.69,7.38-.69,7.38h52.11s-.2-3.62-.69-7.38c-.5-3.77-.99-6.24-3.07-7.33-2.08-1.09-9.07-2.78-10.95-4.27"/>
    <path class="st0" d="M81.24,23.52v4.16s1.69-.41,1.62,1.93c0,0,.07,2.56-2.81,3.36,0,0-.2,3.27-.5,4.36-.3,1.09-4.26,6.34-9.21,6.34h0c-4.95,0-8.92-5.25-9.21-6.34-.3-1.09-.5-4.36-.5-4.36-2.88-.79-2.81-3.36-2.81-3.36-.07-2.34,1.62-1.93,1.62-1.93v-4.09"/>
    <line class="st0" x1="53.66" y1="59.24" x2="53.66" y2="66.61"/>
    <line class="st0" x1="87.03" y1="59.24" x2="87.03" y2="66.61"/>
    <line class="st0" x1="78.33" y1="61" x2="81.61" y2="61"/>
    <path class="st0" d="M81.61,22.8v-.4c0-6.22-5.05-11.27-11.27-11.27h0c-6.22,0-11.27,5.05-11.27,11.27v.4h22.54Z"/>
    <path class="st0" d="M59.07,22.8l1.15,2.63c.64,1.45,2.07,2.39,3.65,2.39h12.85c1.62,0,3.09-.98,3.7-2.49l1.19-2.92"/>
  </g>
</svg>