<?xml version="1.0" encoding="UTF-8"?>
<svg id="Layer_1" xmlns="http://www.w3.org/2000/svg" version="1.1" viewBox="0 0 100 100">
  <!-- Generator: Adobe Illustrator 30.4.0, SVG Export Plug-In . SVG Version: 2.1.4 Build 226)  -->
  <defs>
    <style>
      .st0 {
        fill: none;
        stroke: #c29d4b;
        stroke-linecap: round;
        stroke-linejoin: round;
        stroke-width: 2.83px;
      }
    </style>
  </defs>
  <g>
    <circle class="st0" cx="49.04" cy="38.23" r="9.79"/>
    <g>
      <line class="st0" x1="44.53" y1="39.02" x2="44.62" y2="39.02"/>
      <line class="st0" x1="49" y1="39.02" x2="49.08" y2="39.02"/>
      <line class="st0" x1="53.46" y1="39.02" x2="53.55" y2="39.02"/>
      <line class="st0" x1="46.72" y1="42.73" x2="46.81" y2="42.73"/>
      <line class="st0" x1="51.18" y1="42.73" x2="51.27" y2="42.73"/>
    </g>
  </g>
  <g>
    <path class="st0" d="M66.67,20.21v22.78c0,8.17-6.62,14.79-14.79,14.79h-5.89c-8.17,0-14.79-6.62-14.79-14.79v-22.78"/>
    <rect class="st0" x="28.36" y="14.17" width="41.15" height="6.04" rx="1.87" ry="1.87"/>
    <path class="st0" d="M31.2,25.37s-6.68-3.5-10.53.7-.11,25.25,13.95,26.37"/>
    <path class="st0" d="M66.87,25.37s6.68-3.5,10.53.7c3.85,4.2.11,25.25-13.95,26.37"/>
    <rect class="st0" x="42.22" y="57.77" width="14.01" height="6.13" rx="1.89" ry="1.89"/>
    <line class="st0" x1="53.07" y1="80.01" x2="53.07" y2="63.9"/>
    <line class="st0" x1="45.28" y1="63.9" x2="45.28" y2="80.01"/>
    <rect class="st0" x="38.36" y="80.71" width="21.36" height="5.95" rx="1.84" ry="1.84"/>
  </g>
</svg>