<?xml version="1.0" encoding="UTF-8"?>
<svg id="Layer_1" xmlns="http://www.w3.org/2000/svg" version="1.1" viewBox="0 0 100 100">
  <!-- Generator: Adobe Illustrator 30.4.0, SVG Export Plug-In . SVG Version: 2.1.4 Build 226)  -->
  <defs>
    <style>
      .st0 {
        stroke-linecap: round;
        stroke-linejoin: round;
        stroke-width: 2.13px;
      }

      .st0, .st1 {
        fill: none;
        stroke: #c29d4b;
      }

      .st1 {
        stroke-miterlimit: 10;
        stroke-width: 1.42px;
      }
    </style>
  </defs>
  <g>
    <g>
      <path class="st0" d="M26.53,39.98l3.81,16.73c.47,2.06,2.56,3.3,4.59,2.72h0c1.9-.54,3.03-2.48,2.58-4.4l-5.29-22.2c-.49-1.9-1.8-3.57-3.72-4.46h0c-3.4-1.57-7.43-.09-9.01,3.31l-7.26,15.71c-1.62,3.51-1.62,7.55,0,11.05l5.28,11.39c.49,1.06.75,2.21.75,3.38v14.75c0,2.17,1.76,3.93,3.93,3.93h0c2.17,0,3.93-1.76,3.93-3.93v-15.25c0-.84-.13-1.67-.39-2.47l-3.02-9.36c-.47-1.45-.37-3.03.27-4.42l4.63-10.01"/>
      <path class="st0" d="M31.51,24.86h0c-3.49-1.4-5.2-5.36-3.8-8.86h0c1.4-3.49,5.36-5.2,8.86-3.8h0c3.49,1.4,5.2,5.36,3.8,8.86h0c-1.4,3.49-5.36,5.2-8.86,3.8Z"/>
    </g>
    <g>
      <line class="st0" x1="35.7" y1="59.11" x2="48.38" y2="86.12"/>
      <path class="st0" d="M48.38,86.12h9.9c.89,0,1.61.72,1.61,1.61v.14c0,2.62-2.13,4.75-4.75,4.75h-2.01c-2.62,0-4.75-2.13-4.75-4.75v-1.75h0Z"/>
    </g>
    <g>
      <circle class="st0" cx="68.04" cy="86.61" r="3.8" transform="translate(-24.85 145.79) rotate(-84.35)"/>
      <line class="st0" x1="68.04" y1="90.41" x2="68.04" y2="94"/>
    </g>
  </g>
  <g>
    <g>
      <polyline class="st1" points="74.8 21.63 84.03 16.73 79.2 25.65"/>
      <circle class="st1" cx="76.01" cy="24.75" r="3.34"/>
      <circle class="st1" cx="76.01" cy="24.75" r="13.74" transform="translate(-.19 .58) rotate(-.43)"/>
      <polyline class="st1" points="72.89 23.54 67.99 32.77 76.91 27.94"/>
      <circle class="st1" cx="76.01" cy="9.26" r="1.75" transform="translate(59.31 83.98) rotate(-84.35)"/>
    </g>
    <line class="st1" x1="76.01" y1="11" x2="76.01" y2="14.43"/>
    <line class="st1" x1="76.01" y1="38.36" x2="76.01" y2="34.93"/>
    <line class="st1" x1="89.69" y1="24.68" x2="86.26" y2="24.68"/>
    <line class="st1" x1="62.33" y1="24.68" x2="65.76" y2="24.68"/>
  </g>
</svg>