<?xml version="1.0" encoding="UTF-8"?>
<svg id="Layer_1" xmlns="http://www.w3.org/2000/svg" version="1.1" viewBox="0 0 100 100">
  <!-- Generator: Adobe Illustrator 30.4.0, SVG Export Plug-In . SVG Version: 2.1.4 Build 226)  -->
  <defs>
    <style>
      .st0 {
        fill: none;
        stroke: #c29d4b;
        stroke-miterlimit: 10;
        stroke-width: 2.83px;
      }
    </style>
  </defs>
  <path class="st0" d="M30.62,58.1c-12.23,1.89-21.29,8.76-21.29,16.94,0,9.64,12.58,17.46,28.09,17.46,6.83,0,13.1-1.52,17.97-4.04,3.01-1.56,6.45-2.08,9.82-1.62,1.62.22,3.32.34,5.07.34,11.83,0,21.43-5.44,21.43-12.14s-9.59-12.14-21.43-12.14c-1.75,0-3.44.12-5.07.34-3.36.46-6.8-.06-9.82-1.62-3.73-1.93-8.28-3.28-13.28-3.8"/>
  <path class="st0" d="M43.01,71.77c1.08.87,1.72,1.97,1.72,3.16,0,2.85-3.66,5.16-8.17,5.16s-8.17-2.31-8.17-5.16c0-1.39.87-2.64,2.28-3.57"/>
  <g>
    <line class="st0" x1="36.69" y1="72.45" x2="36.69" y2="9.74"/>
    <polyline class="st0" points="36.69 13.07 51.01 13.07 51.01 29.26 36.69 29.26"/>
    <polyline class="st0" points="51.01 17.11 63.19 17.11 63.19 34.7 43.2 34.7 43.2 29.26"/>
  </g>
</svg>